<svg width="108" height="30" viewBox="0 0 108 30" fill="none" xmlns="http://www.w3.org/2000/svg">
<path d="M5.84678 21.4343L11.0917 16.222L14.531 19.6613L21.4955 12.7054V16.6382H23.2152V9.75963H16.3366V11.4793H20.2677L14.531 17.2177L11.0917 13.7784L4.66367 20.2495L5.84678 21.4343ZM2.77894 29.5355C1.98676 29.5355 1.32584 29.2707 0.796194 28.741C0.266544 28.2114 0.00114643 27.5499 0 26.7566V4.80018C0 4.008 0.265398 3.34708 0.796194 2.81743C1.32699 2.28778 1.98791 2.02239 2.77894 2.02124H24.7371C25.5281 2.02124 26.189 2.28664 26.7198 2.81743C27.2506 3.34823 27.5154 4.00915 27.5143 4.80018V26.7583C27.5143 27.5493 27.2495 28.2103 26.7198 28.741C26.1902 29.2718 25.5287 29.5367 24.7353 29.5355H2.77894Z" fill="white"/>
<path d="M33.4261 5.25851V3.7372H40.5938V5.25851H37.9219V12.4645H36.098V5.25851H33.4261ZM49.3956 8.10084C49.3956 9.05255 49.2152 9.8622 48.8544 10.5298C48.4964 11.1974 48.0078 11.7074 47.3885 12.0596C46.772 12.4091 46.0788 12.5838 45.3089 12.5838C44.5334 12.5838 43.8374 12.4077 43.2209 12.0554C42.6044 11.7031 42.1172 11.1932 41.7592 10.5256C41.4013 9.85794 41.2223 9.0497 41.2223 8.10084C41.2223 7.14914 41.4013 6.33948 41.7592 5.67186C42.1172 5.00425 42.6044 4.49573 43.2209 4.1463C43.8374 3.79402 44.5334 3.61789 45.3089 3.61789C46.0788 3.61789 46.772 3.79402 47.3885 4.1463C48.0078 4.49573 48.4964 5.00425 48.8544 5.67186C49.2152 6.33948 49.3956 7.14914 49.3956 8.10084ZM47.5249 8.10084C47.5249 7.48436 47.4325 6.96448 47.2479 6.54118C47.0661 6.11789 46.8089 5.79686 46.4766 5.57811C46.1442 5.35936 45.755 5.24999 45.3089 5.24999C44.8629 5.24999 44.4737 5.35936 44.1413 5.57811C43.8089 5.79686 43.5504 6.11789 43.3658 6.54118C43.1839 6.96448 43.093 7.48436 43.093 8.10084C43.093 8.71732 43.1839 9.2372 43.3658 9.6605C43.5504 10.0838 43.8089 10.4048 44.1413 10.6236C44.4737 10.8423 44.8629 10.9517 45.3089 10.9517C45.755 10.9517 46.1442 10.8423 46.4766 10.6236C46.8089 10.4048 47.0661 10.0838 47.2479 9.6605C47.4325 9.2372 47.5249 8.71732 47.5249 8.10084ZM50.7624 12.4645V3.7372H54.2567C54.8988 3.7372 55.4343 3.83238 55.8633 4.02272C56.2923 4.21306 56.6147 4.47726 56.8306 4.81533C57.0465 5.15056 57.1545 5.53692 57.1545 5.97442C57.1545 6.31533 57.0863 6.61505 56.9499 6.87357C56.8136 7.12925 56.6261 7.33948 56.3874 7.50425C56.1516 7.66618 55.8817 7.78124 55.5778 7.84942V7.93465C55.9102 7.94885 56.2212 8.0426 56.511 8.2159C56.8036 8.38919 57.0408 8.63209 57.2227 8.94459C57.4045 9.25425 57.4954 9.62357 57.4954 10.0525C57.4954 10.5156 57.3803 10.929 57.1502 11.2926C56.9229 11.6534 56.5863 11.9389 56.1403 12.1491C55.6942 12.3594 55.1445 12.4645 54.4911 12.4645H50.7624ZM52.6076 10.956H54.1119C54.6261 10.956 55.0011 10.8579 55.2369 10.6619C55.4727 10.4631 55.5906 10.1989 55.5906 9.86931C55.5906 9.62783 55.5323 9.41476 55.4158 9.2301C55.2994 9.04544 55.1332 8.90056 54.9173 8.79544C54.7042 8.69033 54.4499 8.63777 54.1545 8.63777H52.6076V10.956ZM52.6076 7.38919H53.9755C54.2283 7.38919 54.4528 7.34516 54.6488 7.25709C54.8477 7.16618 55.0039 7.03834 55.1175 6.87357C55.234 6.7088 55.2923 6.51135 55.2923 6.28124C55.2923 5.9659 55.18 5.71164 54.9556 5.51845C54.734 5.32527 54.4187 5.22868 54.0096 5.22868H52.6076V7.38919ZM64.9251 4.6747H66.8768C67.5756 4.6747 68.195 4.82243 68.7347 5.11789C69.2773 5.41334 69.7021 5.82953 70.0089 6.36647C70.3185 6.90056 70.4734 7.5284 70.4734 8.24999C70.4734 8.94885 70.3185 9.55823 70.0089 10.0781C69.7021 10.598 69.2773 11.0028 68.7347 11.2926C68.195 11.5795 67.5756 11.723 66.8768 11.723H64.9251C64.2234 11.723 63.6012 11.581 63.0586 11.2969C62.516 11.0099 62.0898 10.6065 61.7802 10.0866C61.4734 9.56675 61.32 8.95311 61.32 8.24573C61.32 7.52414 61.4748 6.8963 61.7844 6.3622C62.0969 5.82527 62.5245 5.4105 63.0671 5.11789C63.6097 4.82243 64.229 4.6747 64.9251 4.6747ZM64.9251 6.21732C64.5501 6.21732 64.2191 6.2926 63.9322 6.44317C63.6481 6.5909 63.4265 6.81533 63.2674 7.11647C63.1083 7.4176 63.0288 7.79402 63.0288 8.24573C63.0288 8.67755 63.1097 9.03692 63.2717 9.32385C63.4364 9.61078 63.6609 9.82527 63.945 9.96732C64.229 10.1094 64.5558 10.1804 64.9251 10.1804H66.8896C67.2617 10.1804 67.587 10.1079 67.8654 9.96306C68.1467 9.81817 68.364 9.60226 68.5174 9.31533C68.6737 9.0284 68.7518 8.67328 68.7518 8.24999C68.7518 7.79828 68.6737 7.42186 68.5174 7.12073C68.364 6.81959 68.1467 6.59374 67.8654 6.44317C67.587 6.2926 67.2617 6.21732 66.8896 6.21732H64.9251ZM66.7745 3.5838V12.8224H65.0231V3.5838H66.7745ZM77.1126 12.4645L74.3086 8.74431H73.6779V12.4645H71.8327V3.7372H73.6779V7.223H74.0487L76.9464 3.7372H79.2433L75.8384 7.7855L79.4009 12.4645H77.1126ZM33.6605 21.4645V20.544C33.6605 20.2827 33.7116 20.0156 33.8139 19.7429C33.9162 19.4702 34.0511 19.2131 34.2188 18.9716C34.3864 18.7301 34.5682 18.5284 34.7642 18.3665L35.5653 18.8395C35.4063 19.0895 35.2756 19.3508 35.1733 19.6236C35.0739 19.8963 35.0241 20.2003 35.0241 20.5355V21.4645H33.6605ZM35.8125 21.4645V20.544C35.8125 20.2827 35.8636 20.0156 35.9659 19.7429C36.0682 19.4702 36.2031 19.2131 36.3707 18.9716C36.5384 18.7301 36.7202 18.5284 36.9162 18.3665L37.7173 18.8395C37.5582 19.0895 37.4276 19.3508 37.3253 19.6236C37.2259 19.8963 37.1761 20.2003 37.1761 20.5355V21.4645H35.8125ZM42.2727 19.6747H44.2244C44.9233 19.6747 45.5426 19.8224 46.0824 20.1179C46.625 20.4133 47.0497 20.8295 47.3565 21.3665C47.6662 21.9006 47.821 22.5284 47.821 23.25C47.821 23.9489 47.6662 24.5582 47.3565 25.0781C47.0497 25.598 46.625 26.0028 46.0824 26.2926C45.5426 26.5795 44.9233 26.723 44.2244 26.723H42.2727C41.571 26.723 40.9489 26.581 40.4062 26.2969C39.8636 26.0099 39.4375 25.6065 39.1278 25.0866C38.821 24.5668 38.6676 23.9531 38.6676 23.2457C38.6676 22.5241 38.8224 21.8963 39.1321 21.3622C39.4446 20.8253 39.8722 20.4105 40.4148 20.1179C40.9574 19.8224 41.5767 19.6747 42.2727 19.6747ZM42.2727 21.2173C41.8977 21.2173 41.5668 21.2926 41.2798 21.4432C40.9957 21.5909 40.7741 21.8153 40.6151 22.1165C40.456 22.4176 40.3764 22.794 40.3764 23.2457C40.3764 23.6775 40.4574 24.0369 40.6193 24.3239C40.7841 24.6108 41.0085 24.8253 41.2926 24.9673C41.5767 25.1094 41.9034 25.1804 42.2727 25.1804H44.2372C44.6094 25.1804 44.9347 25.1079 45.2131 24.9631C45.4943 24.8182 45.7116 24.6023 45.8651 24.3153C46.0213 24.0284 46.0994 23.6733 46.0994 23.25C46.0994 22.7983 46.0213 22.4219 45.8651 22.1207C45.7116 21.8196 45.4943 21.5937 45.2131 21.4432C44.9347 21.2926 44.6094 21.2173 44.2372 21.2173H42.2727ZM44.1222 18.5838V27.8224H42.3707V18.5838H44.1222ZM51.0256 18.7372V27.4645H49.1804V18.7372H51.0256ZM58.3349 18.7372V20.2585H54.3888V27.4645H52.5437V18.7372H58.3349ZM63.1971 22.3807V23.821H59.217V22.3807H63.1971ZM64.7781 27.4645V18.7372H68.2212C68.8832 18.7372 69.4471 18.8636 69.913 19.1165C70.3789 19.3665 70.734 19.7145 70.9783 20.1605C71.2255 20.6037 71.3491 21.115 71.3491 21.6946C71.3491 22.2741 71.2241 22.7855 70.9741 23.2287C70.7241 23.6719 70.3619 24.017 69.8874 24.2642C69.4158 24.5114 68.8448 24.6349 68.1744 24.6349H65.9798V23.1562H67.8761C68.2312 23.1562 68.5238 23.0952 68.7539 22.973C68.9869 22.848 69.1602 22.6761 69.2738 22.4574C69.3903 22.2358 69.4485 21.9815 69.4485 21.6946C69.4485 21.4048 69.3903 21.152 69.2738 20.9361C69.1602 20.7173 68.9869 20.5483 68.7539 20.429C68.521 20.3068 68.2255 20.2457 67.8675 20.2457H66.6232V27.4645H64.7781ZM73.044 27.4645H71.0668L74.0795 18.7372H76.4574L79.4659 27.4645H77.4886L75.3026 20.7315H75.2344L73.044 27.4645ZM72.9205 24.0341H77.5909V25.4744H72.9205V24.0341ZM80.5163 27.4645V18.7372H82.3615V22.3381H86.1072V18.7372H87.9482V27.4645H86.1072V23.8594H82.3615V27.4645H80.5163ZM95.2607 18.7372V20.2585H91.3146V27.4645H89.4695V18.7372H95.2607ZM97.9293 18.7372V19.6577C97.9293 19.919 97.8782 20.1861 97.7759 20.4588C97.6765 20.7287 97.543 20.9844 97.3754 21.2258C97.2077 21.4645 97.0245 21.6676 96.8256 21.8352L96.0245 21.3622C96.1665 21.1378 96.2915 20.8892 96.3995 20.6165C96.5103 20.3437 96.5657 20.027 96.5657 19.6662V18.7372H97.9293ZM100.073 18.7372V19.6577C100.073 19.919 100.022 20.1861 99.9194 20.4588C99.82 20.7287 99.6864 20.9844 99.5188 21.2258C99.3512 21.4645 99.1665 21.6676 98.9648 21.8352L98.1637 21.3622C98.3086 21.1378 98.435 20.8892 98.543 20.6165C98.6538 20.3437 98.7092 20.027 98.7092 19.6662V18.7372H100.073Z" fill="white"/>
</svg>
